<svg width="1263" height="310" viewBox="0 0 1263 310" fill="none" xmlns="http://www.w3.org/2000/svg">
<path d="M349.736 274.1C349.259 273.147 348.872 271.45 348.575 269.008C344.733 272.998 340.148 274.993 334.818 274.993C330.054 274.993 326.138 273.653 323.071 270.973C320.034 268.264 318.515 264.84 318.515 260.701C318.515 255.668 320.421 251.768 324.232 248.998C328.073 246.199 333.463 244.8 340.401 244.8H348.441V241.003C348.441 238.115 347.577 235.822 345.85 234.125C344.123 232.398 341.577 231.535 338.212 231.535C335.264 231.535 332.793 232.279 330.798 233.768C328.803 235.257 327.805 237.058 327.805 239.172H319.498C319.498 236.76 320.346 234.438 322.044 232.205C323.771 229.942 326.093 228.155 329.011 226.845C331.959 225.535 335.19 224.88 338.704 224.88C344.272 224.88 348.634 226.279 351.79 229.078C354.947 231.847 356.584 235.673 356.703 240.557V262.8C356.703 267.237 357.269 270.765 358.401 273.385V274.1H349.736ZM336.024 267.802C338.614 267.802 341.071 267.132 343.393 265.792C345.716 264.452 347.398 262.71 348.441 260.567V250.651H341.964C331.84 250.651 326.778 253.614 326.778 259.539C326.778 262.13 327.642 264.155 329.369 265.614C331.096 267.073 333.314 267.802 336.024 267.802ZM392.703 274.1V209.068H411.909C417.656 209.068 422.748 210.349 427.184 212.909C431.651 215.47 435.105 219.103 437.547 223.808C439.988 228.512 441.209 233.902 441.209 239.976V243.237C441.209 249.4 439.973 254.82 437.502 259.495C435.06 264.17 431.561 267.772 427.006 270.303C422.48 272.834 417.284 274.1 411.418 274.1H392.703ZM404.003 218.18V265.078H411.373C417.299 265.078 421.839 263.232 424.996 259.539C428.182 255.817 429.805 250.487 429.864 243.549V239.932C429.864 232.874 428.331 227.485 425.264 223.763C422.197 220.041 417.745 218.18 411.909 218.18H404.003ZM449.383 249.49C449.383 244.755 450.321 240.497 452.197 236.716C454.072 232.904 456.708 229.986 460.102 227.961C463.497 225.907 467.397 224.88 471.804 224.88C478.325 224.88 483.611 226.979 487.66 231.177C491.74 235.376 493.943 240.944 494.271 247.882L494.315 250.428C494.315 255.192 493.392 259.45 491.546 263.202C489.73 266.954 487.109 269.857 483.685 271.911C480.291 273.966 476.36 274.993 471.894 274.993C465.075 274.993 459.611 272.73 455.502 268.204C451.422 263.648 449.383 257.589 449.383 250.026V249.49ZM460.236 250.428C460.236 255.4 461.263 259.301 463.318 262.13C465.373 264.929 468.231 266.328 471.894 266.328C475.556 266.328 478.4 264.899 480.425 262.041C482.479 259.182 483.506 254.998 483.506 249.49C483.506 244.606 482.449 240.735 480.335 237.877C478.251 235.018 475.407 233.589 471.804 233.589C468.261 233.589 465.447 235.004 463.363 237.832C461.278 240.631 460.236 244.83 460.236 250.428ZM523.347 266.328C526.057 266.328 528.305 265.539 530.092 263.961C531.878 262.383 532.831 260.433 532.95 258.11H543.178C543.059 261.117 542.121 263.931 540.365 266.552C538.608 269.142 536.226 271.197 533.218 272.715C530.211 274.234 526.965 274.993 523.481 274.993C516.722 274.993 511.362 272.805 507.402 268.428C503.442 264.05 501.462 258.006 501.462 250.294V249.177C501.462 241.822 503.427 235.941 507.357 231.535C511.288 227.098 516.648 224.88 523.437 224.88C529.184 224.88 533.858 226.562 537.461 229.927C541.094 233.262 543 237.654 543.178 243.103H532.95C532.831 240.333 531.878 238.056 530.092 236.269C528.335 234.482 526.087 233.589 523.347 233.589C519.834 233.589 517.124 234.87 515.218 237.43C513.313 239.961 512.345 243.817 512.315 248.998V250.74C512.315 255.981 513.253 259.897 515.129 262.487C517.035 265.048 519.774 266.328 523.347 266.328ZM593.694 250.428C593.694 257.902 591.997 263.872 588.602 268.338C585.208 272.775 580.652 274.993 574.935 274.993C569.635 274.993 565.392 273.251 562.206 269.768V292.68H551.352V225.773H561.357L561.804 230.686C564.99 226.815 569.322 224.88 574.801 224.88C580.697 224.88 585.312 227.083 588.647 231.49C592.012 235.867 593.694 241.956 593.694 249.758V250.428ZM582.885 249.49C582.885 244.666 581.918 240.84 579.982 238.011C578.076 235.182 575.337 233.768 571.764 233.768C567.327 233.768 564.141 235.599 562.206 239.262V260.701C564.171 264.452 567.387 266.328 571.853 266.328C575.307 266.328 578.002 264.944 579.937 262.175C581.903 259.376 582.885 255.147 582.885 249.49ZM614.463 274.1H603.61V205.495H614.463V274.1ZM655.197 274.1C654.721 273.177 654.304 271.673 653.947 269.589C650.493 273.192 646.265 274.993 641.262 274.993C636.409 274.993 632.448 273.609 629.381 270.839C626.314 268.07 624.781 264.646 624.781 260.567C624.781 255.415 626.687 251.47 630.498 248.73C634.339 245.961 639.818 244.577 646.935 244.577H653.59V241.405C653.59 238.904 652.89 236.909 651.49 235.42C650.091 233.902 647.962 233.142 645.103 233.142C642.632 233.142 640.607 233.768 639.029 235.018C637.451 236.239 636.662 237.802 636.662 239.708H625.808C625.808 237.058 626.687 234.587 628.443 232.294C630.2 229.971 632.582 228.155 635.59 226.845C638.627 225.535 642.007 224.88 645.729 224.88C651.386 224.88 655.897 226.309 659.262 229.167C662.627 231.996 664.354 235.986 664.443 241.137V262.934C664.443 267.281 665.053 270.75 666.274 273.341V274.1H655.197ZM643.272 266.284C645.416 266.284 647.426 265.763 649.302 264.72C651.207 263.678 652.637 262.279 653.59 260.522V251.41H647.738C643.719 251.41 640.696 252.11 638.672 253.51C636.647 254.909 635.634 256.889 635.634 259.45C635.634 261.534 636.319 263.202 637.689 264.452C639.088 265.673 640.949 266.284 643.272 266.284ZM685.882 225.773L686.195 231.356C689.768 227.038 694.458 224.88 700.264 224.88C710.329 224.88 715.45 230.641 715.629 242.165V274.1H704.775V242.79C704.775 239.723 704.105 237.46 702.765 236.001C701.455 234.512 699.296 233.768 696.289 233.768C691.912 233.768 688.651 235.748 686.507 239.708V274.1H675.654V225.773H685.882ZM736.8 225.773L737.112 231.356C740.686 227.038 745.375 224.88 751.182 224.88C761.246 224.88 766.368 230.641 766.546 242.165V274.1H755.693V242.79C755.693 239.723 755.023 237.46 753.683 236.001C752.373 234.512 750.214 233.768 747.207 233.768C742.83 233.768 739.569 235.748 737.425 239.708V274.1H726.572V225.773H736.8ZM798.928 274.993C792.05 274.993 786.467 272.834 782.179 268.517C777.921 264.17 775.792 258.393 775.792 251.187V249.847C775.792 245.023 776.715 240.721 778.561 236.939C780.437 233.128 783.058 230.165 786.422 228.051C789.787 225.937 793.539 224.88 797.678 224.88C804.258 224.88 809.335 226.979 812.908 231.177C816.511 235.376 818.313 241.316 818.313 248.998V253.376H786.735C787.062 257.366 788.388 260.522 790.71 262.844C793.062 265.167 796.01 266.328 799.554 266.328C804.526 266.328 808.576 264.318 811.702 260.299L817.554 265.882C815.618 268.77 813.028 271.018 809.782 272.626C806.566 274.204 802.948 274.993 798.928 274.993ZM797.633 233.589C794.655 233.589 792.244 234.631 790.397 236.716C788.581 238.8 787.42 241.703 786.914 245.425H807.593V244.621C807.355 240.989 806.387 238.249 804.69 236.403C802.993 234.527 800.641 233.589 797.633 233.589ZM852.079 235.688C850.65 235.45 849.176 235.331 847.657 235.331C842.685 235.331 839.335 237.237 837.608 241.048V274.1H826.754V225.773H837.117L837.385 231.177C840.005 226.979 843.638 224.88 848.283 224.88C849.831 224.88 851.112 225.088 852.124 225.505L852.079 235.688ZM901.702 268.249C904.65 268.249 907.225 267.356 909.429 265.569C911.632 263.782 912.853 261.549 913.091 258.869H920.908C920.759 261.639 919.806 264.274 918.049 266.775C916.292 269.276 913.94 271.271 910.992 272.76C908.074 274.249 904.977 274.993 901.702 274.993C895.121 274.993 889.881 272.805 885.98 268.428C882.109 264.021 880.173 258.006 880.173 250.383V248.998C880.173 244.294 881.037 240.11 882.764 236.448C884.491 232.785 886.962 229.942 890.178 227.917C893.424 225.892 897.25 224.88 901.657 224.88C907.076 224.88 911.573 226.502 915.146 229.748C918.749 232.994 920.669 237.207 920.908 242.388H913.091C912.853 239.262 911.662 236.701 909.518 234.706C907.404 232.681 904.784 231.669 901.657 231.669C897.459 231.669 894.198 233.187 891.876 236.224C889.583 239.232 888.436 243.594 888.436 249.311V250.874C888.436 256.443 889.583 260.73 891.876 263.738C894.168 266.745 897.444 268.249 901.702 268.249ZM928.009 249.49C928.009 244.755 928.932 240.497 930.778 236.716C932.654 232.934 935.245 230.016 938.55 227.961C941.885 225.907 945.682 224.88 949.94 224.88C956.52 224.88 961.835 227.157 965.885 231.713C969.964 236.269 972.004 242.329 972.004 249.892V250.472C972.004 255.177 971.096 259.405 969.279 263.157C967.493 266.879 964.917 269.782 961.552 271.867C958.217 273.951 954.376 274.993 950.029 274.993C943.478 274.993 938.163 272.715 934.084 268.16C930.034 263.604 928.009 257.574 928.009 250.07V249.49ZM936.317 250.472C936.317 255.832 937.553 260.135 940.024 263.38C942.525 266.626 945.86 268.249 950.029 268.249C954.227 268.249 957.562 266.611 960.034 263.336C962.505 260.031 963.741 255.415 963.741 249.49C963.741 244.19 962.475 239.902 959.944 236.626C957.443 233.321 954.108 231.669 949.94 231.669C945.86 231.669 942.57 233.291 940.069 236.537C937.567 239.783 936.317 244.428 936.317 250.472ZM990.138 225.773L990.361 231.133C993.905 226.964 998.684 224.88 1004.7 224.88C1011.46 224.88 1016.06 227.47 1018.5 232.651C1020.11 230.329 1022.19 228.453 1024.75 227.023C1027.34 225.594 1030.4 224.88 1033.91 224.88C1044.51 224.88 1049.9 230.492 1050.08 241.718V274.1H1041.81V242.209C1041.81 238.755 1041.03 236.18 1039.45 234.482C1037.87 232.755 1035.22 231.892 1031.5 231.892C1028.43 231.892 1025.88 232.815 1023.86 234.661C1021.83 236.477 1020.66 238.934 1020.33 242.031V274.1H1012.02V242.433C1012.02 235.405 1008.58 231.892 1001.71 231.892C996.287 231.892 992.579 234.2 990.584 238.815V274.1H982.321V225.773H990.138ZM1103.41 250.472C1103.41 257.827 1101.73 263.753 1098.36 268.249C1095 272.745 1090.44 274.993 1084.69 274.993C1078.83 274.993 1074.21 273.132 1070.85 269.41V292.68H1062.58V225.773H1070.13L1070.53 231.133C1073.9 226.964 1078.57 224.88 1084.56 224.88C1090.37 224.88 1094.95 227.068 1098.32 231.445C1101.71 235.822 1103.41 241.912 1103.41 249.713V250.472ZM1095.14 249.534C1095.14 244.085 1093.98 239.783 1091.66 236.626C1089.34 233.47 1086.15 231.892 1082.1 231.892C1077.1 231.892 1073.35 234.11 1070.85 238.547V261.639C1073.32 266.045 1077.1 268.249 1082.19 268.249C1086.15 268.249 1089.29 266.686 1091.62 263.559C1093.97 260.403 1095.14 255.728 1095.14 249.534ZM1143.78 274.1C1143.31 273.147 1142.92 271.45 1142.62 269.008C1138.78 272.998 1134.2 274.993 1128.87 274.993C1124.1 274.993 1120.19 273.653 1117.12 270.973C1114.08 268.264 1112.56 264.84 1112.56 260.701C1112.56 255.668 1114.47 251.768 1118.28 248.998C1122.12 246.199 1127.51 244.8 1134.45 244.8H1142.49V241.003C1142.49 238.115 1141.63 235.822 1139.9 234.125C1138.17 232.398 1135.63 231.535 1132.26 231.535C1129.31 231.535 1126.84 232.279 1124.85 233.768C1122.85 235.257 1121.85 237.058 1121.85 239.172H1113.55C1113.55 236.76 1114.39 234.438 1116.09 232.205C1117.82 229.942 1120.14 228.155 1123.06 226.845C1126.01 225.535 1129.24 224.88 1132.75 224.88C1138.32 224.88 1142.68 226.279 1145.84 229.078C1149 231.847 1150.63 235.673 1150.75 240.557V262.8C1150.75 267.237 1151.32 270.765 1152.45 273.385V274.1H1143.78ZM1130.07 267.802C1132.66 267.802 1135.12 267.132 1137.44 265.792C1139.76 264.452 1141.45 262.71 1142.49 260.567V250.651H1136.01C1125.89 250.651 1120.83 253.614 1120.83 259.539C1120.83 262.13 1121.69 264.155 1123.42 265.614C1125.14 267.073 1127.36 267.802 1130.07 267.802ZM1171.52 225.773L1171.79 231.847C1175.48 227.202 1180.31 224.88 1186.26 224.88C1196.47 224.88 1201.63 230.641 1201.71 242.165V274.1H1193.45V242.12C1193.42 238.636 1192.62 236.061 1191.04 234.393C1189.49 232.726 1187.06 231.892 1183.76 231.892C1181.08 231.892 1178.73 232.606 1176.7 234.036C1174.68 235.465 1173.1 237.341 1171.97 239.664V274.1H1163.7V225.773H1171.52ZM1229.99 261.996L1241.24 225.773H1250.09L1230.66 281.559C1227.65 289.599 1222.87 293.618 1216.32 293.618L1214.76 293.484L1211.67 292.904V286.204L1213.91 286.383C1216.71 286.383 1218.88 285.817 1220.43 284.686C1222.01 283.554 1223.3 281.485 1224.31 278.477L1226.15 273.564L1208.91 225.773H1217.93L1229.99 261.996Z" fill="#6D9AB4"/>
<g clip-path="url(#clip0)">
<path d="M1183.64 0C1229.96 0 1261.06 36.3183 1261.06 78.5061C1261.06 120.695 1229.53 157.445 1183.21 157.445C1136.88 157.445 1105.79 121.133 1105.79 78.9402C1105.79 36.7532 1137.32 0 1183.64 0ZM1024.24 2.61412C1058.6 2.61412 1081.21 20.8748 1081.21 51.1062C1081.21 84.1589 1053.82 101.119 1021.42 101.119H984.446V154.835H967.267V2.61412H1024.24ZM600.627 2.61174V18.4845H549.518V154.835H532.121V18.4845H481.019V2.61174H600.627ZM742.844 2.61412V18.2655H649.988V70.2423H733.056V85.904H649.988V139.182H743.932V154.835H632.805V2.61412H742.844ZM795.901 2.61412L851.359 85.6842L906.815 2.61412H924.211V154.835H907.025V31.5369L851.572 113.082H850.706L795.253 31.7519V154.835H778.507V2.61412H795.901ZM1240.78 71.5375H1180.98V86.3762H1240.78V71.5375ZM1022.94 18.4877H984.446V85.4651H1022.06C1047.29 85.4651 1063.82 71.9819 1063.82 51.7625C1063.82 29.7941 1047.51 18.4877 1022.94 18.4877Z" fill="#6D9AB4"/>
<path d="M388.621 0C434.933 0 466.036 36.3183 466.036 78.5061C466.036 120.695 434.509 157.445 388.188 157.445C341.865 157.445 310.769 121.133 310.769 78.9402C310.769 36.7532 342.301 0 388.621 0ZM167.242 2.60856V90.0291C167.242 122.869 184.645 141.357 213.778 141.357C241.838 141.357 259.669 124.39 259.669 91.1219V2.60856H276.847V89.8109C276.847 134.178 251.405 157.23 213.348 157.23C175.725 157.23 150.065 134.178 150.065 91.1219V2.60856H167.242ZM120.275 2.61174V18.4845H69.1661V154.835H51.7688V18.4845H0.666504V2.61174H120.275ZM396.647 20.455H381.809V80.2464H396.647V20.455Z" fill="#59CC79"/>
</g>
<defs>
<clipPath id="clip0">
<rect width="1260.67" height="158.1" fill="white" transform="translate(0.666504)"/>
</clipPath>
</defs>
</svg>
